PathFileType	4	(X/Y/Z)	Run_300 02
DataRate	CameraRate	NumFrames	NumMarkers	Units	OrigDataRate	OrigDataStartFrame	OrigNumFrames
120	120	7	42	mm	120	327	128
Frame#	Time	LASI			RASI			LPSI			RPSI			RTH1			RTH2			RTH3			LTH1			LTH2			LTH3			RTB1			RTB2			LTB1			LTB2			LTB3			RCAL			RTOE			RMT5			LCAL			LTOE			LMT5			LACR			RACR			CLAV			C7			RUA1			RUA2			RUA3			RLEL			RMEL			LUA1			LUA2			LUA3			LLEL			LMEL			RFAsuperior			RFAradius			RFAulna			LFAsuperior			LFAradius			LFAulna			RTB3		
		X1	Y1	Z1	X2	Y2	Z2	X3	Y3	Z3	X4	Y4	Z4	X5	Y5	Z5	X6	Y6	Z6	X7	Y7	Z7	X8	Y8	Z8	X9	Y9	Z9	X10	Y10	Z10	X11	Y11	Z11	X12	Y12	Z12	X13	Y13	Z13	X14	Y14	Z14	X15	Y15	Z15	X16	Y16	Z16	X17	Y17	Z17	X18	Y18	Z18	X19	Y19	Z19	X20	Y20	Z20	X21	Y21	Z21	X22	Y22	Z22	X23	Y23	Z23	X24	Y24	Z24	X25	Y25	Z25	X26	Y26	Z26	X27	Y27	Z27	X28	Y28	Z28	X29	Y29	Z29	X30	Y30	Z30	X31	Y31	Z31	X32	Y32	Z32	X33	Y33	Z33	X34	Y34	Z34	X35	Y35	Z35	X36	Y36	Z36	X37	Y37	Z37	X38	Y38	Z38	X39	Y39	Z39	X40	Y40	Z40	X41	Y41	Z41	X42	Y42	Z42	

327	  2.725000	943.817160	1014.082785	-466.352350	912.292298	1042.163636	-208.903908	754.144780	1052.822751	-398.533337	741.409033	1051.695568	-320.136311	878.718863	871.395790	-157.833822	968.526211	786.145194	-165.451713	946.171249	660.349322	-215.257086	874.418593	796.231134	-506.087913	915.006339	671.832593	-488.035917	838.055289	568.979713	-468.814435	1057.249445	394.949596	-309.780687	1024.127241	326.532985	-247.768976	741.773502	413.967448	-405.309545	648.281306	413.978486	-459.282253	537.259875	379.633086	-398.416244	854.635730	103.307825	-349.395742	1088.437826	 73.420491	-367.044609	1017.651705	 50.507306	-270.813056	398.063575	469.581655	-380.354729	390.641063	235.984294	-383.830026	358.211443	309.776475	-463.942171	985.070492	1498.337179	-498.437086	900.763590	1495.977895	-162.647739	985.474677	1439.342276	-282.941869	868.996325	1533.441555	-343.489187	848.791884	1407.293166	-82.206244	821.709367	1321.325947	-82.104931	749.293243	1344.312277	-59.543945	682.489340	1230.782515	 -5.340147	663.451118	1216.564860	-83.990502	976.847201	1406.195595	-573.586830	974.799750	1334.213440	-566.488592	883.880987	1336.720023	-602.358246	876.218423	1177.708662	-661.617933	807.450032	1174.658189	-603.973867	773.620443	1171.671474	  4.120268	905.108907	1068.857965	-75.304114	887.008411	1052.999098	 -6.379537	957.510764	1159.049038	-608.214957	1049.241206	1159.510655	-446.196436	1055.470677	1094.413000	-478.161829	1007.782992	234.958454	-325.187088	
328	  2.733333	941.495277	1011.535582	-467.275196	910.179265	1042.524291	-207.690037	752.047945	1050.367013	-399.213960	739.419803	1049.865457	-320.993744	874.977047	869.183140	-157.787889	961.509639	781.231039	-164.407115	937.909572	657.123058	-215.972225	878.841609	792.225734	-505.717578	925.810177	669.141295	-488.245113	853.067903	564.694260	-468.773206	1043.476701	388.815463	-308.398705	1007.412666	320.973886	-247.138988	761.004243	414.075216	-406.145011	668.053203	412.488446	-460.426799	556.322324	379.625881	-400.195458	829.939235	103.618003	-349.379916	1063.677065	 72.589093	-367.015602	992.730402	 50.183455	-270.670521	416.317855	471.210022	-383.405216	410.095062	237.541445	-386.602960	378.520304	311.050425	-467.225887	982.382703	1494.319674	-499.326023	901.021669	1491.778006	-162.053641	985.206573	1435.016686	-283.724537	868.206061	1530.599421	-343.388062	851.860546	1400.926866	-81.889129	828.800473	1313.183859	-80.922009	755.908862	1333.292177	-56.668051	696.266105	1216.907999	  0.277226	675.128234	1201.369463	-77.651979	972.516515	1402.218588	-574.304590	970.188401	1329.943840	-566.824568	879.182289	1332.841122	-602.104485	870.432277	1173.277833	-660.525566	802.411181	1170.325146	-602.243464	789.772930	1160.247342	  7.976721	921.217567	1059.971342	-73.064154	904.707532	1044.543979	 -3.175728	951.710392	1151.115594	-608.519239	1046.461440	1144.146302	-448.280744	1050.255106	1079.785185	-481.908289	987.504008	231.096390	-324.805384	
329	  2.741667	939.316619	1009.508749	-467.989178	908.112345	1042.922796	-206.631100	750.049090	1048.607306	-399.482976	737.316404	1049.095097	-321.098555	871.195096	868.248996	-157.205007	954.731146	777.667461	-163.292978	929.316940	654.774274	-215.436283	883.141558	788.873212	-505.296041	936.664875	667.270201	-488.260926	868.686194	561.172037	-468.716235	1028.515543	383.737258	-307.394417	990.488647	316.770066	-246.718305	780.964434	414.086181	-406.729581	688.530226	410.999823	-461.442566	576.337415	378.802461	-402.040244	805.278342	104.133355	-349.264732	1038.839619	 72.049567	-366.862289	967.778708	 49.930956	-270.492424	435.169786	471.165204	-386.374959	430.910105	237.426909	-389.459617	399.824291	310.686880	-470.584608	979.504654	1491.119468	-499.976938	902.001337	1488.139604	-161.481802	984.717839	1431.484706	-284.727994	866.882383	1528.160242	-343.068810	854.545353	1396.563950	-81.859199	836.557116	1306.883640	-78.940864	762.768765	1323.491194	-55.358757	710.778508	1204.702238	  5.351133	687.457010	1187.687926	-71.914798	967.738828	1399.463278	-575.083854	965.490882	1326.758838	-567.355922	874.312019	1329.915704	-601.528778	864.549532	1169.893388	-659.283728	797.068856	1166.930959	-600.439100	806.919368	1151.024278	 10.982314	938.372213	1053.381396	-71.556273	923.494768	1038.311677	 -0.766193	945.960273	1145.357803	-607.846647	1043.456801	1129.983930	-450.771467	1044.562456	1066.474834	-486.030733	967.000862	228.407446	-324.545864	
330	  2.750000	937.225163	1007.921775	-468.592182	906.113118	1042.810270	-206.203118	748.084457	1047.440129	-399.500671	735.104584	1049.057949	-320.837995	867.127268	868.185306	-156.393955	948.355411	775.577756	-162.256144	920.576485	652.962330	-213.635618	887.326171	786.591395	-505.009998	947.493183	666.774161	-488.121428	884.635685	558.731442	-468.594226	1012.521786	379.734099	-306.633187	973.273225	313.743364	-246.170949	801.457631	414.216628	-407.070960	709.534523	409.599776	-462.268640	597.104441	377.326240	-403.814123	780.778716	104.916610	-349.108749	1014.090145	 71.509544	-366.531708	942.817202	 49.584232	-270.234301	454.316139	469.448235	-389.224213	452.898889	235.688678	-392.289283	422.037039	308.594110	-473.875909	976.343913	1488.780060	-500.635841	903.550348	1485.109744	-160.904439	983.958643	1428.997695	-285.896438	865.492678	1526.401087	-342.241220	857.395747	1393.207674	-81.671309	844.631633	1302.055944	-76.711367	769.814708	1314.827188	-55.171145	725.506946	1194.407784	  9.826061	700.168758	1175.784656	-66.772628	962.686939	1397.491496	-575.889543	960.674423	1324.423554	-568.023811	869.295665	1327.738699	-600.794461	858.504696	1167.716454	-658.228432	791.358161	1164.726197	-598.978276	824.227404	1144.100833	 13.241668	956.088562	1049.598231	-71.005926	943.076528	1034.661414	  0.451653	940.486129	1141.936728	-606.554320	1039.996124	1117.541333	-453.649600	1038.176757	1054.940302	-490.337180	946.393647	226.611640	-324.116076	
331	  2.758333	935.197743	1006.878767	-469.096259	904.201281	1042.266396	-206.455487	746.139905	1046.935632	-399.440760	732.880333	1049.580992	-320.567434	862.662084	868.492909	-155.683022	942.247591	774.532886	-161.411619	911.602825	651.369993	-210.989580	891.587834	785.678477	-504.896770	958.371092	668.117880	-487.874378	900.660992	557.863062	-468.415240	995.508726	376.402030	-305.909474	955.325124	311.342452	-245.390250	822.246582	414.640016	-407.211656	730.840811	408.433809	-462.879564	618.376725	375.364306	-405.371190	756.423748	105.916059	-348.979508	989.417220	 70.866041	-366.102301	917.821563	 49.131170	-269.935198	473.435274	466.072358	-391.920904	476.069592	232.361478	-395.006858	445.166813	304.711545	-477.000293	972.903812	1487.321914	-501.426935	905.428001	1482.848195	-160.339424	983.061406	1427.492148	-287.168468	864.428014	1525.509086	-340.941639	861.118038	1390.057616	-81.084237	852.684851	1298.294161	-74.896403	777.044187	1307.427976	-55.420732	740.022351	1186.081206	 13.676216	713.148154	1165.779087	-62.218651	957.562278	1396.110941	-576.718843	955.691133	1322.871019	-568.789681	864.046184	1326.360567	-600.041779	852.041482	1166.894118	-657.695770	785.146438	1163.922326	-598.165115	840.985111	1139.297694	 14.826454	973.857195	1048.966883	-71.715966	963.053273	1033.810827	  0.096459	934.928551	1140.277477	-605.530918	1035.689458	1107.514226	-456.842453	1030.935148	1045.727089	-494.531819	925.555213	225.188182	-323.464347	
332	  2.766667	933.270087	1006.562106	-469.287117	902.363743	1041.762186	-207.031892	744.250842	1047.179448	-399.437305	730.798449	1050.588872	-320.478496	857.852870	868.930781	-155.223614	936.167612	773.926002	-160.816891	902.123892	649.926234	-208.195483	896.165437	786.221774	-504.851966	969.354232	671.471348	-487.516346	916.582436	558.960664	-468.228165	977.457898	373.327675	-305.113057	936.286949	309.129039	-244.471643	843.109683	415.470760	-407.189977	752.225302	407.660684	-463.289430	639.921049	373.017701	-406.623878	732.102300	107.029754	-348.879473	964.705739	 70.188552	-365.659890	892.758485	 48.672133	-269.646954	492.319804	461.049175	-394.435748	500.541519	227.469292	-397.570700	469.213683	299.064483	-479.893080	969.320896	1486.724984	-502.322254	907.468183	1481.546458	-159.851088	982.229886	1426.735940	-288.489552	863.750433	1525.469914	-339.456086	866.160669	1386.979307	-80.165296	860.558321	1295.440726	-73.797875	784.472998	1301.546726	-55.449550	754.121852	1179.636102	 16.893822	726.317721	1157.704759	-58.286358	952.491675	1395.448673	-577.608780	950.484048	1322.205556	-569.668623	858.421434	1326.084757	-599.322890	844.809291	1167.528671	-657.852667	778.289216	1164.667506	-598.022712	856.895418	1136.414007	 15.710835	991.335912	1051.695903	-73.928095	982.989273	1035.872758	 -2.058748	928.389531	1139.448444	-605.747151	1030.177231	1100.675646	-460.266486	1022.844537	1039.449318	-498.374640	904.296133	223.766850	-322.703836	
333	  2.775000	931.523935	1007.096983	-468.820418	900.557560	1041.695191	-207.475117	742.504276	1048.162111	-399.573096	729.019544	1052.029494	-320.612213	852.880158	869.538961	-154.968310	929.821804	773.296522	-160.480858	891.807592	648.773385	-205.956025	901.135624	788.160027	-504.776772	980.318958	676.683529	-487.019362	932.268209	562.138912	-468.063254	958.466003	370.341447	-304.287381	916.163060	306.981790	-243.587686	863.879800	416.810483	-407.053864	773.514557	407.410901	-463.548847	661.599759	370.307514	-407.582888	707.699635	108.170199	-348.750276	939.855989	 69.580988	-365.230312	867.620343	 48.313408	-269.387491	510.919866	454.385003	-396.727184	526.460738	221.087058	-399.947884	494.131152	291.754466	-482.483790	965.783824	1486.957184	-503.202606	909.638978	1481.351657	-159.549536	981.587895	1426.600575	-289.816059	863.241694	1526.133455	-338.096062	872.434012	1384.478250	-79.212601	868.285400	1293.641011	-73.302181	792.123427	1297.353085	-54.809279	767.835484	1174.921132	 19.470776	739.544740	1151.566821	-55.049272	947.480671	1395.782328	-578.600719	944.984592	1322.596078	-570.723137	852.318648	1327.269019	-598.628335	836.569171	1169.658846	-658.610351	770.724537	1167.052987	-598.321332	872.084997	1135.443723	 15.791019	1008.372335	1057.836653	-77.675285	1002.492009	1040.849252	 -5.997218	920.074568	1138.966229	-607.676697	1023.336993	1097.570946	-463.828895	1014.127651	1036.617201	-501.842337	882.501526	222.282288	-321.972571	
